<svg width="58" height="39" viewBox="0 0 58 39" fill="none" xmlns="http://www.w3.org/2000/svg">
<path fill-rule="evenodd" clip-rule="evenodd" d="M49.8387 6.18753C43.4133 5.95127 36.8745 4.18128 31.0626 1.92764C30.4754 1.70024 30.6086 0.691893 31.2851 0.79775C36.4382 1.60869 41.5823 1.85002 46.7345 2.09174L46.7346 2.09174L46.7346 2.09174C49.6182 2.22703 52.5045 2.36244 55.3964 2.59791C56.1168 2.65643 56.6029 3.13236 56.8166 3.70907C57.1348 4.22627 57.2133 4.89107 56.8358 5.48658C55.2817 7.93798 53.6509 10.3246 52.0215 12.7092L52.0215 12.7092L52.0215 12.7093C49.1123 16.967 46.2075 21.218 43.7521 25.8191C43.4264 26.4293 42.5463 25.9166 42.7161 25.3163C44.4101 19.3441 46.9201 13.0873 50.5758 7.82933C43.962 11.6297 37.4035 15.5403 30.9033 19.5273C26.9406 21.9581 23.0109 24.4419 19.116 26.9787C16.9837 28.3677 14.8651 29.7775 12.7603 31.2081C12.468 31.4067 12.186 31.606 11.9087 31.8019C10.6484 32.6926 9.48715 33.5132 7.919 33.8773C6.64226 34.1734 5.53444 32.5718 6.31824 31.498C8.08811 29.0733 11.2869 27.3554 14.2169 25.7818C15.2257 25.2401 16.2026 24.7154 17.0784 24.1849C21.0435 21.784 25.0403 19.4367 29.0689 17.1447C35.8832 13.2676 42.8083 9.63698 49.8387 6.18753ZM3.30612 37.9501C2.25287 38.5352 0.837194 37.9929 0.317134 36.9491C-0.240028 35.8309 0.261512 34.5468 1.31812 33.9601C2.37137 33.375 3.78705 33.9173 4.30711 34.9611C4.86427 36.0793 4.36273 37.3633 3.30612 37.9501Z" fill="white"/>
</svg>
