<svg width="58" height="39" viewBox="0 0 58 39" fill="none" xmlns="http://www.w3.org/2000/svg">
<path fill-rule="evenodd" clip-rule="evenodd" d="M7.26155 6.18753C13.687 5.95127 20.2257 4.18128 26.0376 1.92764C26.6248 1.70024 26.4917 0.691893 25.8151 0.79775C20.662 1.60869 15.518 1.85002 10.3657 2.09174L10.3657 2.09174L10.3656 2.09174C7.48197 2.22703 4.59571 2.36244 1.70381 2.59791C0.9834 2.65643 0.497334 3.13236 0.283655 3.70907C-0.0345492 4.22627 -0.113059 4.89107 0.264415 5.48658C1.8185 7.93798 3.44929 10.3246 5.07867 12.7092L5.07869 12.7092L5.07871 12.7093C7.98797 16.967 10.8927 21.218 13.3481 25.8191C13.6738 26.4293 14.5539 25.9166 14.3841 25.3163C12.6901 19.3441 10.1801 13.0873 6.52443 7.82933C13.1383 11.6297 19.6968 15.5403 26.1969 19.5273C30.1597 21.9581 34.0893 24.4419 37.9842 26.9787C40.1165 28.3677 42.2351 29.7775 44.3399 31.2081C44.6322 31.4067 44.9142 31.606 45.1915 31.8019C46.4519 32.6926 47.6131 33.5132 49.1812 33.8773C50.458 34.1734 51.5658 32.5718 50.782 31.498C49.0121 29.0733 45.8133 27.3554 42.8833 25.7818C41.8745 25.2401 40.8976 24.7154 40.0218 24.1849C36.0567 21.784 32.0599 19.4367 28.0313 17.1447C21.217 13.2676 14.2919 9.63698 7.26155 6.18753ZM53.7941 37.9501C54.8474 38.5352 56.263 37.9929 56.7831 36.9491C57.3402 35.8309 56.8387 34.5468 55.7821 33.9601C54.7288 33.375 53.3132 33.9173 52.7931 34.9611C52.236 36.0793 52.7375 37.3633 53.7941 37.9501Z" fill="white"/>
</svg>
