<svg width="62" height="29" viewBox="0 0 62 29" fill="none" xmlns="http://www.w3.org/2000/svg">
<path fill-rule="evenodd" clip-rule="evenodd" d="M55.1689 7.93551C51.3324 13.0953 48.6213 19.3032 46.7424 25.2468C46.5523 25.8471 47.4221 26.3743 47.7629 25.7803C50.355 21.2533 53.3857 17.0899 56.4212 12.9198L56.4212 12.9197L56.4212 12.9197C58.1202 10.5858 59.8207 8.2497 61.4466 5.84663C61.8518 5.24808 61.7847 4.57112 61.4686 4.04357C61.2643 3.47172 60.7949 2.99448 60.0942 2.91626C57.2095 2.59449 54.3274 2.37305 51.4478 2.15182L51.4478 2.15182L51.4477 2.15181C46.3062 1.75679 41.1726 1.36239 36.0472 0.398505C35.3674 0.270653 35.2166 1.27797 35.7911 1.52125C41.5096 3.93702 47.9606 5.89448 54.3495 6.33317C47.2465 9.11396 40.0921 11.7826 32.9146 14.3579C28.5388 15.9278 24.1424 17.4387 19.7264 18.8894C17.3087 19.6834 14.8833 20.4538 12.4503 21.2004C12.1125 21.3041 11.7805 21.3993 11.4542 21.493C9.97076 21.9188 8.60403 22.311 7.33881 23.3064C6.30885 24.1169 6.86494 25.9833 8.19298 26.0439C11.1918 26.1806 14.5335 24.7605 17.5943 23.4597C18.6482 23.0118 19.6688 22.5781 20.6306 22.227C24.9846 20.6366 29.3165 18.9878 33.6252 17.2797C40.9136 14.3906 48.079 11.2608 55.1689 7.93551ZM1.27538 24.3559C0.159936 24.8113 -0.302949 26.2549 0.185781 27.3137C0.709376 28.4481 2.02477 28.8604 3.14362 28.4033C4.25907 27.9479 4.72195 26.5043 4.23322 25.4455C3.70962 24.3112 2.39423 23.8989 1.27538 24.3559Z" fill="white"/>
</svg>
