<svg width="39" height="12" viewBox="0 0 39 12" fill="none" xmlns="http://www.w3.org/2000/svg">
<path d="M16.9 11.8269H13.7407L15.7167 0.210563H18.8758L16.9 11.8269Z" fill="white"/>
<path d="M28.3526 0.494549C27.7294 0.259509 26.7411 -4.29153e-06 25.519 -4.29153e-06C22.3991 -4.29153e-06 20.2021 1.58171 20.1886 3.84309C20.1627 5.51152 21.7616 6.43821 22.9575 6.99452C24.1797 7.56299 24.5952 7.93402 24.5952 8.44073C24.5828 9.21894 23.6076 9.57766 22.698 9.57766C21.4366 9.57766 20.7608 9.39272 19.7337 8.95976L19.3177 8.77416L18.8756 11.3818C19.6166 11.7027 20.9818 11.9875 22.3991 12C25.714 12 27.8722 10.4428 27.8977 8.0329C27.9103 6.71054 27.066 5.69729 25.2458 4.86931C24.1409 4.3378 23.4642 3.97941 23.4642 3.43558C23.4771 2.9412 24.0365 2.43482 25.2838 2.43482C26.3109 2.41002 27.0655 2.64473 27.6372 2.8796L27.9229 3.00295L28.3526 0.494549Z" fill="white"/>
<path d="M32.5516 7.71163C32.8117 7.04429 33.8129 4.46148 33.8129 4.46148C33.7997 4.48628 34.0725 3.78182 34.2285 3.34935L34.4493 4.35029C34.4493 4.35029 35.0476 7.13085 35.1775 7.71163C34.6838 7.71163 33.1756 7.71163 32.5516 7.71163ZM36.4513 0.210563H34.0076C33.254 0.210563 32.6815 0.420472 32.3563 1.17437L27.6636 11.8267H30.9786C30.9786 11.8267 31.5243 10.393 31.6416 10.0842C32.0053 10.0842 35.23 10.0842 35.6979 10.0842C35.7886 10.492 36.0748 11.8267 36.0748 11.8267H39L36.4513 0.210563Z" fill="white"/>
<path d="M11.1019 0.210563L8.00797 8.13178L7.66988 6.52526C7.09787 4.67155 5.30392 2.65754 3.30197 1.65611L6.13594 11.8146H9.47678L14.4426 0.210563H11.1019Z" fill="white"/>
<path d="M5.13496 0.210563H0.0520007L0 0.445274C3.96503 1.40925 6.59099 3.73287 7.66988 6.52576L6.5649 1.18702C6.38299 0.44511 5.82393 0.235036 5.13496 0.210563Z" fill="white"/>
</svg>
