<svg width="48" height="11" viewBox="0 0 48 11" fill="none" xmlns="http://www.w3.org/2000/svg">
<g clip-path="url(#clip0_4263_34)">
<path d="M31.0931 3.9226C30.2853 3.21332 29.3099 2.8666 28.1823 2.8666C27.0702 2.8666 26.0948 3.21376 25.2865 3.9226C24.4786 4.61648 24.0679 5.58228 24.0679 6.81956C24.0679 8.05684 24.4786 9.02176 25.2865 9.73104C26.0943 10.4249 27.0702 10.7721 28.1823 10.7721C29.3099 10.7721 30.2853 10.4249 31.0931 9.73104C31.9164 9.02176 32.3271 8.0564 32.3271 6.81956C32.3271 5.58272 31.9159 4.61648 31.0931 3.9226ZM26.659 8.40312C26.2329 7.99612 26.0183 7.46768 26.0183 6.81912C26.0183 6.17056 26.2311 5.64256 26.659 5.25008C26.8574 5.05437 27.0948 4.89996 27.3566 4.79625C27.6184 4.69254 27.8992 4.6417 28.1819 4.64684C28.4669 4.64165 28.7501 4.6924 29.0145 4.79605C29.2789 4.89971 29.5191 5.05413 29.7206 5.25008C30.1617 5.64256 30.3763 6.17012 30.3763 6.81912C30.3763 7.46812 30.1635 7.99568 29.7206 8.40312C29.2945 8.79516 28.776 8.9914 28.1819 8.9914C27.9007 8.99575 27.6213 8.94601 27.36 8.84505C27.0986 8.74409 26.8604 8.5939 26.659 8.40312ZM35.2089 10.5604V0.20812H33.2889V10.5604H35.2089ZM41.4059 3.0778V7.20852C41.4059 8.2038 40.8625 8.8638 39.8282 8.8638C38.7763 8.8638 38.2474 8.20468 38.2474 7.20852V3.0778H36.3238V7.52532C36.3238 9.24836 37.421 10.7716 39.8282 10.7716H39.8432C42.2355 10.7716 43.3309 9.21448 43.3309 7.52532V3.0778H41.4059ZM22.0248 3.0778L20.1048 8.1466L18.1848 3.0778H16.1429L19.2068 10.5609H21.0054L24.0688 3.0778H22.0248ZM16.152 6.60792C16.152 5.522 15.802 4.63188 15.1159 3.9226C14.4299 3.21332 13.5473 2.8666 12.4651 2.8666C11.3529 2.8666 10.4074 3.24412 9.63034 3.98288C8.86777 4.72252 8.48785 5.65752 8.48785 6.81912C8.48785 7.98072 8.86868 8.93156 9.6154 9.67032C10.378 10.41 11.2922 10.7716 12.374 10.7716C14.0359 10.7716 15.2088 10.0474 15.9238 8.58396L14.4919 7.76908C14.0205 8.68912 13.3336 9.14188 12.4044 9.14188C11.2619 9.14188 10.454 8.41764 10.3318 7.27144H16.1515V6.60748L16.152 6.60792ZM12.403 4.31464C13.4848 4.31464 14.2017 4.91788 14.3842 5.88368H10.3309C10.6211 4.99356 11.4127 4.31464 12.4035 4.31464H12.403ZM8.4874 10.5604L5.91125 6.09532C7.54098 5.50704 8.34883 4.4814 8.34883 2.9876C8.35064 1.16204 6.88664 0 4.55547 0H0V10.5604H2.01147V6.27616H3.71864L6.18657 10.5609L8.4874 10.5604ZM4.55547 1.74988C5.74415 1.74988 6.33872 2.2176 6.33872 3.13764C6.33872 4.05768 5.7437 4.5254 4.55547 4.5254H2.01147V1.74988H4.55547ZM46.5858 10.7716C45.35 10.7716 44.3479 9.779 44.3479 8.55404V1.056H46.2679V3.08044H47.9144V4.61912H46.2679V8.43172C46.2679 8.79076 46.5618 9.0816 46.925 9.0816H47.9144V10.7716H46.5858Z" fill="white"/>
</g>
<defs>
<clipPath id="clip0_4263_34">
<rect width="48" height="11" fill="white"/>
</clipPath>
</defs>
</svg>
