<svg width="37" height="13" viewBox="0 0 37 13" fill="none" xmlns="http://www.w3.org/2000/svg">
<g clip-path="url(#clip0_4263_32)">
<path d="M29.4241 1.56634L32.4988 1.03366V12.518H29.4241V1.56634ZM33.9123 1.56634V12.5117H36.987V1.03366L33.9123 1.56634ZM25.0532 12.5117H28.1278V4.11561H25.0532V12.5117ZM4.73574 5.30146C4.34489 5.2761 3.44595 5.21902 3.44595 4.43268C3.44595 3.48146 4.74225 3.48146 5.22429 3.48146C6.07764 3.48146 7.18503 3.72878 7.97324 3.95707C7.97324 3.95707 8.4162 4.10927 8.7875 4.26146L8.82007 4.26781V1.6678L8.77447 1.65512C7.84296 1.33805 6.76162 1.03366 4.74877 1.03366C1.28327 1.03366 0.0586243 2.99951 0.0586243 4.68C0.0586243 5.65024 0.488554 7.93317 4.45563 8.19951C4.79436 8.21854 5.68679 8.26927 5.68679 9.08732C5.68679 9.75951 4.95722 10.159 3.72605 10.159C2.37764 10.159 1.07482 9.82293 0.280103 9.50585V12.1883C1.46567 12.4927 2.80757 12.6449 4.37746 12.6449C7.76479 12.6449 9.28257 10.7868 9.28257 8.94146C9.28257 6.84878 7.58891 5.49171 4.73574 5.30146ZM23.3204 3.99512C20.4803 4.0839 19.0407 5.32683 19.0407 7.79366V12.518H22.1414V8.66244C22.1414 7.18488 22.3368 6.55073 24.1412 6.49366V4.03317C23.8285 3.9761 23.3204 3.99512 23.3204 3.99512ZM14.9824 4.10927C14.9173 4.27415 14.4222 5.63122 13.2301 7.03268V1.03366L10.0577 1.64244V12.5117H13.2301V9.15073C14.1486 10.4951 14.6046 12.5117 14.6046 12.5117H18.4023C18.0245 10.9898 16.3829 8.18683 16.3829 8.18683C17.8551 6.36683 18.5065 4.42634 18.6107 4.10293H14.9824V4.10927ZM26.584 3.31024C27.4178 3.31024 28.1018 2.65073 28.1018 1.83902C28.1018 1.02732 27.4243 0.361464 26.584 0.361464C25.7502 0.361464 25.0727 1.02098 25.0727 1.83902C25.0727 2.65073 25.7502 3.31024 26.584 3.31024Z" fill="white"/>
</g>
<defs>
<clipPath id="clip0_4263_32">
<rect width="37" height="13" fill="white"/>
</clipPath>
</defs>
</svg>
