<svg width="24" height="43" viewBox="0 0 24 43" fill="none" xmlns="http://www.w3.org/2000/svg">
<mask id="path-1-outside-1_4223_2599" maskUnits="userSpaceOnUse" x="0" y="0" width="24" height="43" fill="black">
<rect fill="white" width="24" height="43"/>
<path d="M12.6609 42V15.176L4.65291 17.92L1.68491 9.072L22.2369 1.96H22.9649V42H12.6609Z"/>
</mask>
<path d="M12.6609 42H11.6609V43H12.6609V42ZM12.6609 15.176H13.6609V13.7763L12.3368 14.23L12.6609 15.176ZM4.65291 17.92L3.70482 18.238L4.02492 19.1923L4.97706 18.866L4.65291 17.92ZM1.68491 9.072L1.35788 8.12698L0.421805 8.45091L0.736825 9.39003L1.68491 9.072ZM22.2369 1.96V0.959998H22.0688L21.9099 1.01498L22.2369 1.96ZM22.9649 1.96H23.9649V0.959998H22.9649V1.96ZM22.9649 42V43H23.9649V42H22.9649ZM13.6609 42V15.176H11.6609V42H13.6609ZM12.3368 14.23L4.32875 16.974L4.97706 18.866L12.9851 16.122L12.3368 14.23ZM5.60099 17.602L2.63299 8.75397L0.736825 9.39003L3.70482 18.238L5.60099 17.602ZM2.01193 10.017L22.5639 2.90501L21.9099 1.01498L1.35788 8.12698L2.01193 10.017ZM22.2369 2.96H22.9649V0.959998H22.2369V2.96ZM21.9649 1.96V42H23.9649V1.96H21.9649ZM22.9649 41H12.6609V43H22.9649V41Z" fill="white" mask="url(#path-1-outside-1_4223_2599)"/>
</svg>
