<svg width="35" height="42" viewBox="0 0 35 42" fill="none" xmlns="http://www.w3.org/2000/svg">
<mask id="path-1-outside-1_4223_2620" maskUnits="userSpaceOnUse" x="0" y="0" width="35" height="42" fill="black">
<rect fill="white" width="35" height="42"/>
<path d="M19.592 41V34.112H1.56V26.216L12.872 1.8H23.848L13.04 25.208H19.592V18.264H28.776V25.208H33.648V34.112H28.776V41H19.592Z"/>
</mask>
<path d="M19.592 41H18.592V42H19.592V41ZM19.592 34.112H20.592V33.112H19.592V34.112ZM1.56 34.112H0.56V35.112H1.56V34.112ZM1.56 26.216L0.652651 25.7956L0.56 25.9956V26.216H1.56ZM12.872 1.8V0.799997H12.2332L11.9647 1.37962L12.872 1.8ZM23.848 1.8L24.7559 2.21919L25.4112 0.799997H23.848V1.8ZM13.04 25.208L12.1321 24.7888L11.4768 26.208H13.04V25.208ZM19.592 25.208V26.208H20.592V25.208H19.592ZM19.592 18.264V17.264H18.592V18.264H19.592ZM28.776 18.264H29.776V17.264H28.776V18.264ZM28.776 25.208H27.776V26.208H28.776V25.208ZM33.648 25.208H34.648V24.208H33.648V25.208ZM33.648 34.112V35.112H34.648V34.112H33.648ZM28.776 34.112V33.112H27.776V34.112H28.776ZM28.776 41V42H29.776V41H28.776ZM20.592 41V34.112H18.592V41H20.592ZM19.592 33.112H1.56V35.112H19.592V33.112ZM2.56 34.112V26.216H0.56V34.112H2.56ZM2.46735 26.6364L13.7794 2.22037L11.9647 1.37962L0.652651 25.7956L2.46735 26.6364ZM12.872 2.8H23.848V0.799997H12.872V2.8ZM22.9401 1.3808L12.1321 24.7888L13.9479 25.6272L24.7559 2.21919L22.9401 1.3808ZM13.04 26.208H19.592V24.208H13.04V26.208ZM20.592 25.208V18.264H18.592V25.208H20.592ZM19.592 19.264H28.776V17.264H19.592V19.264ZM27.776 18.264V25.208H29.776V18.264H27.776ZM28.776 26.208H33.648V24.208H28.776V26.208ZM32.648 25.208V34.112H34.648V25.208H32.648ZM33.648 33.112H28.776V35.112H33.648V33.112ZM27.776 34.112V41H29.776V34.112H27.776ZM28.776 40H19.592V42H28.776V40Z" fill="white" mask="url(#path-1-outside-1_4223_2620)"/>
</svg>
