<svg width="76" height="25" viewBox="0 0 76 25" fill="none" xmlns="http://www.w3.org/2000/svg">
<g clip-path="url(#clip0_4222_2484)">
<path d="M32.9329 24.6393H26.7764L30.6271 0.438675H36.7833L32.9329 24.6393Z" fill="white"/>
<path d="M55.2511 1.03031C54.0368 0.540645 52.1107 -7.62939e-06 49.7292 -7.62939e-06C43.6494 -7.62939e-06 39.3681 3.29523 39.3418 8.00643C39.2913 11.4823 42.4071 13.4129 44.7375 14.5719C47.1194 15.7562 47.9291 16.5292 47.9291 17.5849C47.9048 19.2061 46.0044 19.9535 44.2318 19.9535C41.7739 19.9535 40.4569 19.5682 38.4554 18.6662L37.6447 18.2795L36.7832 23.712C38.2271 24.3806 40.8874 24.974 43.6494 25C50.1093 25 54.3149 21.7557 54.3647 16.7352C54.3893 13.9803 52.744 11.8694 49.1969 10.1444C47.0436 9.03709 45.7249 8.29044 45.7249 7.15747C45.7502 6.12749 46.8403 5.07254 49.271 5.07254C51.2724 5.02087 52.743 5.50985 53.857 5.99917L54.4138 6.25615L55.2511 1.03031Z" fill="white"/>
<path d="M63.4334 16.0659C63.9404 14.6756 65.8913 9.29475 65.8913 9.29475C65.8658 9.34643 66.3973 7.8788 66.7013 6.97782L67.1316 9.0631C67.1316 9.0631 68.2975 14.8559 68.5506 16.0659C67.5884 16.0659 64.6494 16.0659 63.4334 16.0659ZM71.0328 0.438675H66.2708C64.8022 0.438675 63.6865 0.875987 63.0529 2.44661L53.9082 24.639H60.3681C60.3681 24.639 61.4316 21.6521 61.6602 21.0088C62.3688 21.0088 68.653 21.0088 69.5647 21.0088C69.7414 21.8584 70.2992 24.639 70.2992 24.639H75.9996L71.0328 0.438675Z" fill="white"/>
<path d="M21.6345 0.438675L15.6052 16.9412L14.9464 13.5943C13.8317 9.73241 10.3358 5.53654 6.43457 3.45024L11.9572 24.6137H18.4675L28.1445 0.438675H21.6345Z" fill="white"/>
<path d="M10.0066 0.438675H0.101335L0 0.927656C7.72672 2.93594 12.844 7.77682 14.9464 13.5953L12.7931 2.47296C12.4386 0.927314 11.3492 0.48966 10.0066 0.438675Z" fill="#FAA61A"/>
</g>
<defs>
<clipPath id="clip0_4222_2484">
<rect width="76" height="25" fill="white"/>
</clipPath>
</defs>
</svg>
