<svg width="34" height="27" viewBox="0 0 34 27" fill="none" xmlns="http://www.w3.org/2000/svg">
<g clip-path="url(#clip0_4263_26)">
<path d="M6.16232 26.9408V25.149C6.16232 24.4635 5.754 24.0147 5.05304 24.0147C4.70256 24.0147 4.32145 24.133 4.05944 24.5227C3.85528 24.1956 3.56264 24.0147 3.12369 24.0147C2.83106 24.0147 2.53842 24.1052 2.30704 24.4322V24.0738H1.69455V26.9408H2.30704V25.3577C2.30704 24.8497 2.56905 24.6097 2.97738 24.6097C3.3857 24.6097 3.58987 24.8776 3.58987 25.3577V26.9408H4.20236V25.3577C4.20236 24.8497 4.49499 24.6097 4.87269 24.6097C5.28102 24.6097 5.48518 24.8776 5.48518 25.3577V26.9408H6.16232ZM15.2476 24.0738H14.254V23.2075H13.6415V24.0738H13.0869V24.641H13.6415V25.9562C13.6415 26.6138 13.9035 27 14.6045 27C14.8665 27 15.1591 26.9095 15.3633 26.7912L15.1863 26.2519C15.0094 26.3702 14.8052 26.4015 14.6589 26.4015C14.3663 26.4015 14.2506 26.2206 14.2506 25.9249V24.641H15.2442V24.0738H15.2476ZM20.447 24.0112C20.0965 24.0112 19.8617 24.1921 19.7154 24.4287V24.0704H19.1029V26.9374H19.7154V25.3229C19.7154 24.8463 19.9195 24.5749 20.3006 24.5749C20.4163 24.5749 20.5626 24.6062 20.6817 24.634L20.8587 24.0356C20.7362 24.0112 20.5626 24.0112 20.447 24.0112ZM12.5901 24.3104C12.2974 24.1017 11.8891 24.0112 11.4502 24.0112C10.7492 24.0112 10.283 24.3696 10.283 24.9367C10.283 25.4134 10.6335 25.6848 11.246 25.7718L11.5386 25.8031C11.8585 25.8622 12.0354 25.9527 12.0354 26.1023C12.0354 26.3111 11.8006 26.4607 11.3923 26.4607C10.984 26.4607 10.6607 26.3111 10.4566 26.1615L10.1639 26.6381C10.4838 26.8782 10.9227 26.9965 11.3617 26.9965C12.1783 26.9965 12.6479 26.6068 12.6479 26.071C12.6479 25.563 12.2668 25.2951 11.6849 25.2046L11.3923 25.1733C11.1303 25.142 10.9261 25.0829 10.9261 24.9054C10.9261 24.6966 11.1303 24.5784 11.4536 24.5784C11.804 24.5784 12.1545 24.728 12.3315 24.8184L12.5901 24.3104ZM28.8857 24.0112C28.5352 24.0112 28.3004 24.1921 28.1541 24.4287V24.0704H27.5416V26.9374H28.1541V25.3229C28.1541 24.8463 28.3583 24.5749 28.7394 24.5749C28.8551 24.5749 29.0014 24.6062 29.1205 24.634L29.2974 24.0425C29.1783 24.0112 29.0048 24.0112 28.8857 24.0112ZM21.0594 25.5073C21.0594 26.3737 21.6447 27 22.5498 27C22.9582 27 23.2508 26.9095 23.5434 26.6729L23.2508 26.1649C23.016 26.3459 22.7846 26.4329 22.5192 26.4329C22.0224 26.4329 21.6719 26.0745 21.6719 25.5073C21.6719 24.968 22.0224 24.6097 22.5192 24.5818C22.7812 24.5818 23.016 24.6723 23.2508 24.8497L23.5434 24.3418C23.2508 24.1017 22.9582 24.0147 22.5498 24.0147C21.6447 24.0112 21.0594 24.641 21.0594 25.5073ZM26.725 25.5073V24.0738H26.1125V24.4322C25.9083 24.1643 25.6157 24.0147 25.2346 24.0147C24.4452 24.0147 23.8327 24.641 23.8327 25.5073C23.8327 26.3737 24.4452 27 25.2346 27C25.6429 27 25.9355 26.8504 26.1125 26.5825V26.9408H26.725V25.5073ZM24.4758 25.5073C24.4758 24.9994 24.7956 24.5818 25.3231 24.5818C25.8199 24.5818 26.1703 24.9715 26.1703 25.5073C26.1703 26.0153 25.8199 26.4329 25.3231 26.4329C24.799 26.4015 24.4758 26.0119 24.4758 25.5073ZM17.1463 24.0112C16.3297 24.0112 15.7444 24.6097 15.7444 25.5039C15.7444 26.4015 16.3297 26.9965 17.1769 26.9965C17.5853 26.9965 17.9936 26.8782 18.3168 26.6068L18.0242 26.158C17.7894 26.3389 17.4968 26.4572 17.2076 26.4572C16.8265 26.4572 16.4488 26.2763 16.3603 25.7718H18.4325C18.4325 25.6813 18.4325 25.6222 18.4325 25.5317C18.4598 24.6097 17.9323 24.0112 17.1463 24.0112ZM17.1463 24.5505C17.5274 24.5505 17.7894 24.7906 17.8473 25.236H16.3875C16.4454 24.8497 16.7074 24.5505 17.1463 24.5505ZM32.3633 25.5073V22.9396H31.7508V24.4322C31.5466 24.1643 31.254 24.0147 30.8729 24.0147C30.0835 24.0147 29.471 24.641 29.471 25.5073C29.471 26.3737 30.0835 27 30.8729 27C31.2812 27 31.5739 26.8504 31.7508 26.5825V26.9408H32.3633V25.5073ZM30.1141 25.5073C30.1141 24.9994 30.4339 24.5818 30.9614 24.5818C31.4582 24.5818 31.8086 24.9715 31.8086 25.5073C31.8086 26.0153 31.4582 26.4329 30.9614 26.4329C30.4339 26.4015 30.1141 26.0119 30.1141 25.5073ZM9.60928 25.5073V24.0738H8.99679V24.4322C8.79263 24.1643 8.49999 24.0147 8.11889 24.0147C7.32946 24.0147 6.71697 24.641 6.71697 25.5073C6.71697 26.3737 7.32946 27 8.11889 27C8.52722 27 8.81985 26.8504 8.99679 26.5825V26.9408H9.60928V25.5073ZM7.33286 25.5073C7.33286 24.9994 7.65272 24.5818 8.18014 24.5818C8.67694 24.5818 9.02742 24.9715 9.02742 25.5073C9.02742 26.0153 8.67694 26.4329 8.18014 26.4329C7.65272 26.4015 7.33286 26.0119 7.33286 25.5073Z" fill="white"/>
<path d="M12.9984 10.7513C12.9984 7.31714 14.5773 4.2692 17 2.29987C15.217 0.866366 12.9678 0 10.5144 0C4.70256 0 0 4.80851 0 10.7513C0 16.6941 4.70256 21.5026 10.5144 21.5026C12.9678 21.5026 15.217 20.6362 17 19.2027C14.5739 17.2612 12.9984 14.1854 12.9984 10.7513Z" fill="white"/>
<path d="M34 10.7513C34 16.6941 29.2974 21.5026 23.4856 21.5026C21.0322 21.5026 18.783 20.6362 17 19.2027C19.4534 17.2299 21.0016 14.1854 21.0016 10.7513C21.0016 7.31714 19.4227 4.2692 17 2.29987C18.7796 0.866366 21.0288 0 23.4822 0C29.2974 0 34 4.83982 34 10.7513Z" fill="white"/>
</g>
<defs>
<clipPath id="clip0_4263_26">
<rect width="34" height="27" fill="white"/>
</clipPath>
</defs>
</svg>
