<svg width="101" height="23" viewBox="0 0 101 23" fill="none" xmlns="http://www.w3.org/2000/svg">
<g clip-path="url(#clip0_4263_36)">
<path d="M19.0323 14.3546C18.2537 13.9106 17.3752 13.7784 16.5043 13.7454C15.78 13.724 14.693 13.2469 14.693 11.9244C14.693 10.9385 15.4888 10.1427 16.5153 10.1034C17.3862 10.0704 18.2647 9.93821 19.0426 9.49003C21.2409 8.22052 21.9975 5.40887 20.728 3.20788C19.4481 1.00552 16.6303 0.256481 14.4245 1.53012C12.998 2.34732 12.1195 3.87155 12.1257 5.51421C12.1257 6.40644 12.4452 7.22433 12.85 7.99195C13.1914 8.63015 13.356 9.82393 12.1973 10.4945C11.3264 10.9929 10.24 10.6817 9.70236 9.8136C9.24729 9.07833 8.69791 8.39332 7.91995 7.94927C5.71896 6.67632 2.90043 7.43224 1.6385 9.62703C0.372429 11.8294 1.1256 14.6397 3.32659 15.9092C4.75031 16.7264 6.49967 16.7264 7.92339 15.9092C8.69791 15.4637 9.24729 14.7794 9.70236 14.0448C10.0748 13.4452 11.018 12.6783 12.1973 13.3626C13.0696 13.8576 13.3381 14.9591 12.85 15.8692C12.4486 16.6217 12.1257 17.4506 12.1257 18.3429C12.1257 20.8819 14.1849 22.9362 16.7225 22.9397C19.2615 22.9397 21.3159 20.8819 21.3193 18.3429C21.3269 16.7009 20.4553 15.1767 19.0316 14.3553L19.0323 14.3546Z" fill="white"/>
</g>
<g clip-path="url(#clip1_4263_36)">
<path d="M37.4504 0.908447C35.2718 0.908447 33.1421 1.55448 31.3306 2.76485C29.5192 3.97523 28.1073 5.69558 27.2736 7.70835C26.4399 9.72113 26.2218 11.9359 26.6468 14.0727C27.0718 16.2094 28.1209 18.1722 29.6614 19.7127C31.2019 21.2532 33.1647 22.3023 35.3014 22.7273C37.4382 23.1524 39.653 22.9342 41.6658 22.1005C43.6785 21.2668 45.3989 19.8549 46.6093 18.0435C47.8196 16.232 48.4657 14.1023 48.4657 11.9237C48.4657 9.00228 47.3051 6.20051 45.2394 4.13474C43.1736 2.06898 40.3718 0.908447 37.4504 0.908447ZM37.2102 4.28435H39.5821C39.6307 4.2843 39.6787 4.29551 39.7222 4.31712C39.7658 4.33873 39.8037 4.37015 39.8331 4.4089C39.8624 4.44764 39.8824 4.49267 39.8914 4.54044C39.9004 4.58821 39.8983 4.63742 39.885 4.68421L38.0205 11.0345L39.7703 10.5003L39.3956 11.7713L37.6297 12.2858L36.4841 16.1531H42.612C42.6606 16.1532 42.7086 16.1647 42.7521 16.1865C42.7956 16.2083 42.8334 16.2399 42.8626 16.2788C42.8918 16.3177 42.9116 16.3629 42.9204 16.4108C42.9292 16.4586 42.9267 16.5079 42.9132 16.5546L42.379 18.3905C42.3535 18.4778 42.3004 18.5545 42.2277 18.6091C42.155 18.6638 42.0665 18.6934 41.9756 18.6935H32.6151L34.1964 13.349L32.4465 13.8815L32.8321 12.6319L34.5854 12.0995L36.8086 4.59094C36.8329 4.50304 36.8854 4.42551 36.9579 4.37016C37.0304 4.31482 37.119 4.28468 37.2102 4.28435Z" fill="white"/>
</g>
<g clip-path="url(#clip2_4263_36)">
<path fill-rule="evenodd" clip-rule="evenodd" d="M52.7023 11.9237C52.7023 5.84028 57.6342 0.908447 63.7176 0.908447C69.801 0.908447 74.7329 5.84028 74.7329 11.9237C74.7329 18.0071 69.801 22.939 63.7176 22.939C57.6342 22.939 52.7023 18.0071 52.7023 11.9237ZM64.5327 4.33219C64.4401 4.20238 64.3178 4.09657 64.176 4.02357C64.0342 3.95056 63.8771 3.91248 63.7176 3.91248C63.5581 3.91248 63.401 3.95056 63.2592 4.02357C63.1174 4.09657 62.9951 4.20238 62.9025 4.33219L57.8955 11.3419C57.7743 11.5117 57.7092 11.7151 57.7092 11.9237C57.7092 12.1323 57.7743 12.3357 57.8955 12.5055L62.9025 19.5152C62.9951 19.645 63.1174 19.7509 63.2592 19.8239C63.401 19.8969 63.5581 19.935 63.7176 19.935C63.8771 19.935 64.0342 19.8969 64.176 19.8239C64.3178 19.7509 64.4401 19.645 64.5327 19.5152L69.5397 12.5055C69.6609 12.3357 69.726 12.1323 69.726 11.9237C69.726 11.7151 69.6609 11.5117 69.5397 11.3419L64.5327 4.33219ZM63.7176 12.848L61.4074 11.9237L63.7176 10.9994L66.0278 11.9237L63.7176 12.848ZM64.0891 14.8558L65.9237 14.1228L63.7176 17.21L61.5115 14.1228L63.3461 14.8558C63.5846 14.9511 63.8506 14.9511 64.0891 14.8558ZM63.7176 6.63639L61.5115 9.72467L63.3461 8.99165C63.5846 8.89636 63.8506 8.89636 64.0891 8.99165L65.9237 9.72467L63.7176 6.63639Z" fill="white"/>
</g>
<g clip-path="url(#clip3_4263_36)">
<path d="M92.0965 14.2246C91.7246 15.7261 89.2037 14.9134 88.3771 14.7067L89.0384 12.0481C89.8649 12.2547 92.4822 12.6542 92.0965 14.2246ZM89.9475 8.4114L89.3414 10.8221C90.0302 10.9874 92.1378 11.6899 92.4822 10.3261C92.8266 8.90731 90.6363 8.5767 89.9475 8.4114ZM100.692 14.5828C99.2184 20.4787 93.2399 24.074 87.3302 22.6138C81.4343 21.1399 77.8251 15.1613 79.2991 9.26543C80.7731 3.35581 86.7516 -0.225808 92.6613 1.23439C98.5572 2.70836 102.166 8.68691 100.692 14.5828ZM86.3797 13.77C86.3246 13.9215 86.1731 14.1419 85.8287 14.0593C85.7736 14.0593 84.9471 13.8389 84.9471 13.8389L84.3409 15.2164L85.9113 15.6021C86.2144 15.6848 86.4899 15.7537 86.7792 15.8363L86.2833 17.8338L87.4817 18.1368L87.9777 16.1532C88.3083 16.2496 88.6251 16.3185 88.9419 16.4011L88.446 18.371L89.6583 18.6741L90.1542 16.6766C92.2205 17.0623 93.7771 16.9108 94.4246 15.0373C94.948 13.5358 94.397 12.668 93.3087 12.1032C94.094 11.9241 94.6863 11.4006 94.8516 10.3261C95.072 8.86599 93.9562 8.06701 92.4271 7.55732L92.923 5.55988L91.7108 5.25682L91.2287 7.18538C90.9118 7.10273 90.5812 7.03385 90.2506 6.9512L90.7327 5.00886L89.5343 4.7058L89.0384 6.68947C88.7766 6.63437 88.5149 6.56549 88.2669 6.51039L86.6001 6.08335L86.2833 7.37824C86.2833 7.37824 87.1649 7.58487 87.1649 7.59865C87.647 7.72263 87.7297 8.03946 87.7297 8.3012L86.3659 13.7425L86.3797 13.77Z" fill="white"/>
</g>
<defs>
<clipPath id="clip0_4263_36">
<rect width="22.0305" height="22.0305" fill="white" transform="translate(0.167969 0.908447)"/>
</clipPath>
<clipPath id="clip1_4263_36">
<rect width="22.0305" height="22.0305" fill="white" transform="translate(26.4351 0.908447)"/>
</clipPath>
<clipPath id="clip2_4263_36">
<rect width="22.0305" height="22.0305" fill="white" transform="translate(52.7023 0.908447)"/>
</clipPath>
<clipPath id="clip3_4263_36">
<rect width="22.0305" height="22.0305" fill="white" transform="translate(78.9695 0.908447)"/>
</clipPath>
</defs>
</svg>
