<svg width="31" height="43" viewBox="0 0 31 43" fill="none" xmlns="http://www.w3.org/2000/svg">
<mask id="path-1-outside-1_4223_2616" maskUnits="userSpaceOnUse" x="0" y="-0.333374" width="31" height="43" fill="black">
<rect fill="white" y="-0.333374" width="31" height="43"/>
<path d="M14.4351 41.5066C12.6244 41.5066 10.8511 41.3013 9.11506 40.8906C7.37906 40.48 5.81106 39.9293 4.41106 39.2386C3.02973 38.5293 1.96573 37.736 1.21906 36.8586L4.46706 28.0666C5.41906 29.3173 6.7444 30.316 8.44306 31.0626C10.1417 31.7906 11.8964 32.1546 13.7071 32.1546C14.8084 32.1546 15.7791 31.9866 16.6191 31.6506C17.4591 31.296 18.1124 30.8106 18.5791 30.1946C19.0644 29.5786 19.3071 28.8693 19.3071 28.0666C19.3071 26.7226 18.8124 25.6866 17.8231 24.9586C16.8524 24.2306 15.6111 23.8666 14.0991 23.8666C13.4084 23.8666 12.6711 23.9226 11.8871 24.0346C11.1217 24.1466 10.3471 24.3146 9.56306 24.5386L6.65106 17.5946L15.5551 10.4826H1.77906V1.46662H27.9871V9.75462L20.0351 17.4826C21.6031 17.7066 23.1244 18.2853 24.5991 19.2186C26.0737 20.152 27.2871 21.4306 28.2391 23.0546C29.1911 24.6786 29.6671 26.648 29.6671 28.9626C29.6671 31.3706 29.0137 33.5173 27.7071 35.4026C26.4191 37.288 24.6271 38.7813 22.3311 39.8826C20.0537 40.9653 17.4217 41.5066 14.4351 41.5066Z"/>
</mask>
<path d="M9.11506 40.8906L8.88486 41.8638L9.11506 40.8906ZM4.41106 39.2386L3.95426 40.1282L3.96142 40.1319L3.96864 40.1354L4.41106 39.2386ZM1.21906 36.8586L0.281026 36.5121L0.0782204 37.0611L0.457523 37.5067L1.21906 36.8586ZM4.46706 28.0666L5.26277 27.4609L4.15998 26.0122L3.52903 27.7201L4.46706 28.0666ZM8.44306 31.0626L8.04064 31.9781L8.04914 31.9818L8.44306 31.0626ZM16.6191 31.6506L16.9905 32.5791L16.9993 32.5756L17.008 32.5719L16.6191 31.6506ZM18.5791 30.1946L17.7936 29.5758L17.7877 29.5832L17.782 29.5908L18.5791 30.1946ZM17.8231 24.9586L17.223 25.7587L17.2304 25.7641L17.8231 24.9586ZM11.8871 24.0346L11.7456 23.0447L11.7423 23.0452L11.8871 24.0346ZM9.56306 24.5386L8.64087 24.9254L8.98419 25.744L9.83778 25.5001L9.56306 24.5386ZM6.65106 17.5946L6.02697 16.8133L5.43673 17.2847L5.72887 17.9814L6.65106 17.5946ZM15.5551 10.4826L16.1792 11.264L18.4094 9.48262H15.5551V10.4826ZM1.77906 10.4826H0.779063V11.4826H1.77906V10.4826ZM1.77906 1.46662V0.466623H0.779063V1.46662H1.77906ZM27.9871 1.46662H28.9871V0.466623H27.9871V1.46662ZM27.9871 9.75462L28.684 10.4718L28.9871 10.1772V9.75462H27.9871ZM20.0351 17.4826L19.3381 16.7655L17.8779 18.1846L19.8936 18.4726L20.0351 17.4826ZM28.2391 23.0546L29.1018 22.5489L28.2391 23.0546ZM27.7071 35.4026L26.8851 34.833L26.8814 34.8385L27.7071 35.4026ZM22.3311 39.8826L22.7604 40.7858L22.7636 40.7843L22.3311 39.8826ZM14.4351 40.5066C12.7007 40.5066 11.0047 40.31 9.34527 39.9175L8.88486 41.8638C10.6974 42.2925 12.548 42.5066 14.4351 42.5066V40.5066ZM9.34527 39.9175C7.67246 39.5218 6.17706 38.9948 4.85349 38.3418L3.96864 40.1354C5.44507 40.8638 7.08567 41.4382 8.88486 41.8638L9.34527 39.9175ZM4.86787 38.3491C3.56481 37.6799 2.61852 36.9601 1.9806 36.2105L0.457523 37.5067C1.31293 38.5119 2.49465 39.3787 3.95426 40.1282L4.86787 38.3491ZM2.1571 37.2052L5.4051 28.4132L3.52903 27.7201L0.281026 36.5121L2.1571 37.2052ZM3.67136 28.6723C4.74319 30.0804 6.21485 31.1755 8.04066 31.9781L8.84546 30.1472C7.27394 29.4564 6.09494 28.5542 5.26277 27.4609L3.67136 28.6723ZM8.04914 31.9818C9.86965 32.762 11.7581 33.1546 13.7071 33.1546V31.1546C12.0347 31.1546 10.4138 30.8193 8.83698 30.1435L8.04914 31.9818ZM13.7071 33.1546C14.9087 33.1546 16.0097 32.9714 16.9905 32.5791L16.2477 30.7221C15.5484 31.0019 14.7081 31.1546 13.7071 31.1546V33.1546ZM17.008 32.5719C17.9803 32.1614 18.786 31.5775 19.3762 30.7985L17.782 29.5908C17.4388 30.0437 16.9378 30.4306 16.2301 30.7294L17.008 32.5719ZM19.3646 30.8135C19.9923 30.0167 20.3071 29.0881 20.3071 28.0666H18.3071C18.3071 28.6505 18.1365 29.1406 17.7936 29.5758L19.3646 30.8135ZM20.3071 28.0666C20.3071 26.4394 19.6879 25.0893 18.4157 24.1532L17.2304 25.7641C17.9369 26.2839 18.3071 27.0059 18.3071 28.0666H20.3071ZM18.4231 24.1586C17.2405 23.2717 15.7733 22.8666 14.0991 22.8666V24.8666C15.4488 24.8666 16.4643 25.1895 17.2231 25.7586L18.4231 24.1586ZM14.0991 22.8666C13.3548 22.8666 12.5698 22.9269 11.7456 23.0447L12.0285 25.0246C12.7723 24.9183 13.462 24.8666 14.0991 24.8666V22.8666ZM11.7423 23.0452C10.9308 23.1639 10.1127 23.3416 9.28834 23.5771L9.83778 25.5001C10.5814 25.2877 11.3127 25.1293 12.0319 25.0241L11.7423 23.0452ZM10.4853 24.1519L7.57326 17.2079L5.72887 17.9814L8.64087 24.9254L10.4853 24.1519ZM7.27516 18.376L16.1792 11.264L14.931 9.70128L6.02697 16.8133L7.27516 18.376ZM15.5551 9.48262H1.77906V11.4826H15.5551V9.48262ZM2.77906 10.4826V1.46662H0.779063V10.4826H2.77906ZM1.77906 2.46662H27.9871V0.466623H1.77906V2.46662ZM26.9871 1.46662V9.75462H28.9871V1.46662H26.9871ZM27.2901 9.03749L19.3381 16.7655L20.732 18.1998L28.684 10.4718L27.2901 9.03749ZM19.8936 18.4726C21.3081 18.6746 22.6968 19.1981 24.0643 20.0636L25.1339 18.3736C23.552 17.3725 21.8981 16.7386 20.1765 16.4927L19.8936 18.4726ZM24.0643 20.0636C25.3937 20.905 26.4985 22.0629 27.3764 23.5603L29.1018 22.5489C28.0756 20.7984 26.7538 19.3989 25.1339 18.3736L24.0643 20.0636ZM27.3764 23.5603C28.2199 24.9994 28.6671 26.7851 28.6671 28.9626H30.6671C30.6671 26.5108 30.1622 24.3579 29.1018 22.5489L27.3764 23.5603ZM28.6671 28.9626C28.6671 31.1778 28.0699 33.1236 26.8852 34.833L28.529 35.9723C29.9576 33.911 30.6671 31.5635 30.6671 28.9626H28.6671ZM26.8814 34.8385C25.7036 36.5625 24.0548 37.9467 21.8986 38.981L22.7636 40.7843C25.1993 39.6159 27.1346 38.0134 28.5328 35.9667L26.8814 34.8385ZM21.9017 38.9795C19.781 39.9877 17.3003 40.5066 14.4351 40.5066V42.5066C17.5431 42.5066 20.3264 41.9429 22.7604 40.7858L21.9017 38.9795Z" fill="white" mask="url(#path-1-outside-1_4223_2616)"/>
</svg>
