<svg width="33" height="43" viewBox="0 0 33 43" fill="none" xmlns="http://www.w3.org/2000/svg">
<mask id="path-1-outside-1_4223_2612" maskUnits="userSpaceOnUse" x="0" y="-0.666626" width="33" height="43" fill="black">
<rect fill="white" y="-0.666626" width="33" height="43"/>
<path d="M2.53559 41.3334V34.1654L10.7676 26.8854C13.2689 24.664 15.1823 22.872 16.5076 21.5094C17.8516 20.128 18.7663 18.9614 19.2516 18.0094C19.7556 17.0387 20.0076 16.0587 20.0076 15.0694C20.0076 13.6134 19.5409 12.512 18.6076 11.7654C17.6743 11.0187 16.3116 10.6454 14.5196 10.6454C12.8209 10.6454 11.1969 11.0094 9.64759 11.7374C8.09826 12.4467 6.66093 13.5014 5.33559 14.9014L1.58359 6.72537C3.48759 5.00804 5.67159 3.67337 8.13559 2.72137C10.6183 1.76937 13.1009 1.29337 15.5836 1.29337C18.6263 1.29337 21.2489 1.81604 23.4516 2.86137C25.6729 3.88804 27.3809 5.32537 28.5756 7.17337C29.7703 9.02137 30.3676 11.1494 30.3676 13.5574C30.3676 15.144 30.0503 16.684 29.4156 18.1774C28.7996 19.652 27.7076 21.3134 26.1396 23.1614C24.5903 24.9907 22.4156 27.24 19.6156 29.9094L17.2076 32.2054H31.4316V41.3334H2.53559Z"/>
</mask>
<path d="M2.53559 41.3334H1.53559V42.3334H2.53559V41.3334ZM2.53559 34.1654L1.87313 33.4163L1.53559 33.7148V34.1654H2.53559ZM10.7676 26.8854L11.4301 27.6345L11.4316 27.6331L10.7676 26.8854ZM16.5076 21.5094L15.7909 20.812L15.7907 20.8122L16.5076 21.5094ZM19.2516 18.0094L18.3641 17.5485L18.3607 17.5552L19.2516 18.0094ZM18.6076 11.7654L17.9829 12.5462H17.9829L18.6076 11.7654ZM9.64759 11.7374L10.0639 12.6467L10.0729 12.6424L9.64759 11.7374ZM5.33559 14.9014L4.42673 15.3185L5.04413 16.6638L6.0618 15.5888L5.33559 14.9014ZM1.58359 6.72537L0.913825 5.9828L0.36834 6.47481L0.674726 7.14246L1.58359 6.72537ZM8.13559 2.72137L7.77755 1.78766L7.7752 1.78857L8.13559 2.72137ZM23.4516 2.86137L23.0228 3.76484L23.0321 3.76911L23.4516 2.86137ZM29.4156 18.1774L28.4952 17.7862L28.4929 17.7919L29.4156 18.1774ZM26.1396 23.1614L25.3771 22.5144L25.3765 22.5151L26.1396 23.1614ZM19.6156 29.9094L18.9256 29.1856L18.9255 29.1856L19.6156 29.9094ZM17.2076 32.2054L16.5175 31.4816L14.7097 33.2054H17.2076V32.2054ZM31.4316 32.2054H32.4316V31.2054H31.4316V32.2054ZM31.4316 41.3334V42.3334H32.4316V41.3334H31.4316ZM3.53559 41.3334V34.1654H1.53559V41.3334H3.53559ZM3.19806 34.9145L11.4301 27.6345L10.1051 26.1363L1.87313 33.4163L3.19806 34.9145ZM11.4316 27.6331C13.9397 25.4057 15.8741 23.595 17.2245 22.2066L15.7907 20.8122C14.4905 22.149 12.5981 23.9224 10.1036 26.1377L11.4316 27.6331ZM17.2243 22.2067C18.5917 20.8014 19.5889 19.5495 20.1425 18.4636L18.3607 17.5552C17.9436 18.3733 17.1115 19.4547 15.7909 20.812L17.2243 22.2067ZM20.1391 18.4702C20.7091 17.3724 21.0076 16.2355 21.0076 15.0694H19.0076C19.0076 15.8819 18.8021 16.705 18.3641 17.5486L20.1391 18.4702ZM21.0076 15.0694C21.0076 13.3829 20.4547 11.9624 19.2323 10.9845L17.9829 12.5462C18.6272 13.0616 19.0076 13.8439 19.0076 15.0694H21.0076ZM19.2323 10.9845C18.0522 10.0404 16.43 9.64537 14.5196 9.64537V11.6454C16.1931 11.6454 17.2963 11.997 17.9829 12.5462L19.2323 10.9845ZM14.5196 9.64537C12.6727 9.64537 10.9036 10.0423 9.22232 10.8323L10.0729 12.6424C11.4902 11.9765 12.9691 11.6454 14.5196 11.6454V9.64537ZM9.23132 10.8281C7.5511 11.5974 6.01135 12.733 4.60939 14.2139L6.0618 15.5888C7.31051 14.2698 8.64543 13.296 10.0639 12.6466L9.23132 10.8281ZM6.24446 14.4843L2.49246 6.30829L0.674726 7.14246L4.42673 15.3185L6.24446 14.4843ZM2.25336 7.46794C4.06397 5.83485 6.14236 4.56353 8.49599 3.65417L7.7752 1.78857C5.20083 2.78322 2.91122 4.18123 0.913825 5.9828L2.25336 7.46794ZM8.49363 3.65508C10.8702 2.74377 13.2318 2.29337 15.5836 2.29337V0.293372C12.9701 0.293372 10.3663 0.794977 7.77756 1.78767L8.49363 3.65508ZM15.5836 2.29337C18.5138 2.29337 20.9831 2.7968 23.0229 3.7648L23.8803 1.95795C21.5147 0.835275 18.7388 0.293372 15.5836 0.293372V2.29337ZM23.0321 3.76911C25.1015 4.72557 26.6551 6.04464 27.7358 7.71627L29.4154 6.63047C28.1067 4.60611 26.2444 3.05051 23.8711 1.95364L23.0321 3.76911ZM27.7358 7.71627C28.8161 9.38735 29.3676 11.3231 29.3676 13.5574H31.3676C31.3676 10.9756 30.7244 8.65539 29.4154 6.63047L27.7358 7.71627ZM29.3676 13.5574C29.3676 15.0065 29.0786 16.4137 28.4953 17.7862L30.3359 18.5685C31.0219 16.9544 31.3676 15.2815 31.3676 13.5574H29.3676ZM28.4929 17.7919C27.9314 19.1361 26.9092 20.7087 25.3771 22.5144L26.9021 23.8083C28.506 21.918 29.6678 20.168 30.3383 18.5628L28.4929 17.7919ZM25.3765 22.5151C23.8597 24.306 21.7134 26.5279 18.9256 29.1856L20.3056 30.6332C23.1178 27.9522 25.3209 25.6754 26.9027 23.8077L25.3765 22.5151ZM18.9255 29.1856L16.5175 31.4816L17.8977 32.9291L20.3057 30.6331L18.9255 29.1856ZM17.2076 33.2054H31.4316V31.2054H17.2076V33.2054ZM30.4316 32.2054V41.3334H32.4316V32.2054H30.4316ZM31.4316 40.3334H2.53559V42.3334H31.4316V40.3334Z" fill="white" mask="url(#path-1-outside-1_4223_2612)"/>
</svg>
